<?xml version="1.0" encoding="UTF-8" standalone="no"?>
<svg
   xmlns:dc="http://purl.org/dc/elements/1.1/"
   xmlns:cc="http://creativecommons.org/ns#"
   xmlns:rdf="http://www.w3.org/1999/02/22-rdf-syntax-ns#"
   xmlns:svg="http://www.w3.org/2000/svg"
   xmlns="http://www.w3.org/2000/svg"
   xmlns:sodipodi="http://sodipodi.sourceforge.net/DTD/sodipodi-0.dtd"
   xmlns:inkscape="http://www.inkscape.org/namespaces/inkscape"
   version="1.1"
   id="svg989"
   width="1954.6667"
   height="1193.3333"
   viewBox="0 0 1954.6667 1193.3333"
   sodipodi:docname="morrison_2016_tree.svg"
   inkscape:version="1.0rc1 (09960d6, 2020-04-09)">
  <metadata
     id="metadata995">
    <rdf:RDF>
      <cc:Work
         rdf:about="">
        <dc:format>image/svg+xml</dc:format>
        <dc:type
           rdf:resource="http://purl.org/dc/dcmitype/StillImage" />
        <dc:title />
      </cc:Work>
    </rdf:RDF>
  </metadata>
  <defs
     id="defs993" />
  <sodipodi:namedview
     inkscape:document-rotation="0"
     pagecolor="#ffffff"
     bordercolor="#666666"
     borderopacity="1"
     objecttolerance="10"
     gridtolerance="10"
     guidetolerance="10"
     inkscape:pageopacity="0"
     inkscape:pageshadow="2"
     inkscape:window-width="1970"
     inkscape:window-height="948"
     id="namedview991"
     showgrid="false"
     inkscape:zoom="0.51159616"
     inkscape:cx="748.82634"
     inkscape:cy="442.73862"
     inkscape:window-x="0"
     inkscape:window-y="23"
     inkscape:window-maximized="0"
     inkscape:current-layer="g997" />
  <g
     inkscape:groupmode="layer"
     inkscape:label="Image"
     id="g997">
    <path
       style="fill:#181818;stroke:none;stroke-width:0.666667"
       d="m 977.25335,45.818666 v 35.333332 l -9.33334,-0.666666 5.73334,30.666668 1.52,11.71133 -12.17334,7.078 -7.28666,14.548 -19.12667,8.86867 -41.33333,18.66667 -153.33334,69.33333 -48.66667,22 -27.33333,11.794 -2.66667,-8 c -11.15333,4.69133 -21.42667,14.58466 -31.33333,21.52 -3.14734,2.20333 -6.9,5.96333 -10.55334,7.17133 -2.66466,0.88067 -6.90533,-3.40667 -9.44666,-4.37933 -5.79067,-2.21534 -12.93934,-0.97667 -17.99734,2.42466 -9.81533,6.6 -12.39333,24.98467 -0.66933,31.26333 l -21.99267,38.66667 -39.058,67.33333 -127.516,220 -31.716,54.66666 -15.71733,28 -8.66667,-4.66667 c -3.48667,10.71334 -7.10467,21.44667 -11.05067,32 -1.39333,3.72667 -2.074,8.60667 -4.34,11.9 -1.97733,2.88 -6.29533,2.03334 -9.276,3.14 -5.68333,2.1 -9.99333,7.23334 -11.70666,12.96 -1.49067,4.98 -0.87534,10.1 1.64333,14.66667 1.696,3.07333 5.29267,5.52 4.76533,9.33333 -1.84533,13.36667 -6.332,26.86667 -9.446,40 -5.896,24.87333 -11.38133,49.85333 -17.50533,74.66666 -3.77467,15.29334 -7.03267,30.71334 -10.83533,46 -1.02734,4.12667 -1.41534,14.02667 -4.734,16.86667 -1.92267,1.64667 -6.58,-0.56 -8.848,-0.86667 l -2,59.33336 c -5.86467,0 -11.38934,0.6067 -15.938,4.8067 -12.5382,11.58 -4.90067,31.88 11.27133,34.2333 12.91,1.88 24.42933,-11.1467 21.546,-23.7067 -1.85867,-8.1 -8.02667,-12.88 -15.546,-15.3333 l 24,-54.00002 -9.33333,-2 c 6.10466,-16.27334 8.54333,-35.04667 12.434,-52 6.69,-29.14667 14.132,-58.14 20.61666,-87.33333 2.17467,-9.79334 4.43534,-19.6 6.86467,-29.33334 0.664,-2.66 0.87133,-8.36666 3.12733,-10.15333 1.546,-1.22 8.30067,-0.61333 10.14067,0 3.09667,1.04 3.57,7.46 4.344,10.15333 l 8.75333,30.66667 c 10.37934,36.41333 21.054,72.78666 30.952,109.33333 2.23334,8.24667 4.60134,16.45333 6.96134,24.66667 0.65066,2.26666 2.88866,6.78 1.672,9.04666 -1.16867,2.17336 -5.736,2.23336 -7.866,2.95336 l 24,48 c -24.66534,1.1267 -23.23734,39.1867 1.33333,39.2133 24.30733,0.033 26.41,-37.08 2,-39.2133 l -4.66667,-54.66669 -8.66666,3.33333 c -17.84267,-55.8 -31.77534,-113.03999 -48,-169.33333 -1.18534,-4.11333 -4.67067,-11.02 -3.92134,-15.27333 0.62534,-3.55333 5.966,-6.65333 7.66934,-10.06 4.89266,-9.78 0.35066,-23.22666 -10.41467,-26.66666 9.92,-11.35334 23.128,-22.96 30.66667,-36 l -8,-4 c 53.884,-91.36867 106.37066,-183.59 159.616,-275.33333 17.664,-30.43533 35.432,-60.81333 52.95067,-91.33333 7.45733,-12.99133 18.91666,-27.066 23.43333,-41.33333 5.29,1.026 10.102,1.88733 15.33333,-0.0867 2.51534,-0.94867 6.094,-4.89467 8.85734,-3.99867 8.08733,2.622 16.86466,11.80867 23.80933,16.752 18.244,12.98667 36.44867,26.02867 54.66667,39.05267 l 16.66667,11.89467 c 1.61533,1.15533 5.184,2.85733 5.356,5.11466 0.17933,2.356 -2.97934,5.228 -4.02267,7.27134 l 37.33333,16.66666 c -3.03866,5.946 -4.69466,12.24067 -1.884,18.66667 1.29,2.948 6.112,6.804 5.70467,10.026 -0.58467,4.61666 -4.35333,9.77533 -6.28133,13.974 -5.212,11.35066 -10.534,22.64933 -15.74534,34 -25.262,55.02399 -51.40133,109.64399 -76.66667,164.66666 -7.46666,16.26 -15.19866,32.40666 -22.66666,48.66666 -3.69867,8.05334 -8.67,16.13334 -11.12734,24.66667 l -9.33333,-3.33333 -12.66667,52.66666 c -11.974,-2.22 -23.736,5.98667 -23.99,18.66667 -0.082,4.12666 0.94534,7.88666 3.26734,11.33333 1.574,2.33333 4.332,4.29333 4.33133,7.33333 -0.005,13 -5.45467,27.9 -8.00867,40.66667 l -17.73333,88.66666 c -2.88933,14.44667 -7.9,29.94667 -8.53333,44.66667 l -9.33334,-2 -0.66666,55.33342 c -7.19667,-0.9067 -13.98267,-1.2667 -19.94,3.6866 -10.114,8.4134 -8.76734,25.4667 2.60666,32.0734 14.12,8.1933 32.79467,-3.9534 29.688,-20.4267 -0.98866,-5.2467 -9.59066,-11.7133 -8.76066,-16.0067 3.34933,-17.3466 16.73666,-32.56 19.73933,-49.99332 l -8.66667,-1.33334 8.8,-45.33333 17.73334,-88.66666 5.73333,-28.66667 2.892,-10.87333 11.508,-0.46 13.71933,49.33333 25.23,89.33333 13.05067,46.66669 -8.66667,1.3333 8.46067,18 10.87267,21.3334 c -16.53267,4.8666 -18.39667,27.4133 -3.99934,35.94 14.53601,8.6066 30.54134,-4.4534 29.27067,-19.94 -0.49533,-6.0334 -4.71133,-11.64 -9.938,-14.4534 -2.23333,-1.2 -6.55066,-1.58 -7.98133,-3.7533 -1.878,-2.86 -1.17667,-9.1067 -1.41133,-12.46 -0.71467,-10.1933 -2.52267,-20.4467 -2.60734,-30.6667 l -9.33333,2.6667 c -2.65467,-18.04002 -10.048,-36.44669 -15.05267,-54.00002 -10.75333,-37.72 -22.15133,-75.38 -32.03333,-113.33333 -1.16467,-4.47334 -5.458,-12.68667 -4.31134,-17.21334 0.87,-3.43333 6.086,-6.66 7.812,-10.12 4.67067,-9.37333 -0.32466,-22.78 -10.41466,-26 l 31.33333,-44.66666 -8.66667,-3.33333 c 30.546,-64.46534 60.69401,-129.172 90.46067,-194 9.10067,-19.81933 18.75467,-39.414 27.632,-59.33333 4.342,-9.74333 8.40334,-24.30667 15.29,-32.42867 1.88334,-2.22066 7.294,-0.80133 9.95067,-0.93133 4.55533,-0.22333 9.10933,-2.48467 12,-5.97333 h 0.66667 l 22,22.01 40,39.99 16,16 5.58,6.60733 -4.91333,7.39267 28.66666,19.35066 16.66667,10.64933 c -5.02,8.06334 -10.01333,16.60534 -4.34667,26 2.12667,3.53 9.26,7.13267 8.99334,11.34334 -0.62,9.67266 -4.28667,19.86066 -6.36667,29.32333 -4.24,19.318 -8.77333,38.612 -12.68,58 -1.88667,9.36666 -4.23333,18.64 -6.13333,28 -0.55334,2.72 -0.83334,9.03333 -3.17334,10.80666 -1.91333,1.44667 -6.12,-0.51333 -8.29333,-0.80666 l -1.33333,55.33333 c -7.42667,-1.44 -14.49334,-1.77334 -20.64001,3.55333 -8.71333,7.55333 -9.6,24.28667 1.30667,30.44667 l -26.14067,118.66666 -12.526,58 -9.33333,-2 -1.33333,54.66669 c -5.97934,0 -11.34267,0.5333 -15.97334,4.7933 -12.91533,11.8667 -4.94133,32.5467 11.97334,34.34 22.85866,2.4134 29.00466,-32.8333 6.66666,-38.4666 l 13.52067,-30.6667 7.81267,-20.00002 -7.78867,-2.21334 1.70933,-11.12 6.312,-28.66666 18.714,-85.33333 10.38667,-48.66667 12.66667,0.66667 13.23333,48 38.76667,137.33335 -8.66667,1.3333 c 2.40667,13.5134 13.39334,26.66 18.66667,39.3334 -21.57333,9.0466 -13.87333,42.8666 10,38.1266 22.14667,-4.3933 20.4,-38.3 -2.66667,-38.7933 l -3.33333,-44.6667 -9.33333,2.6667 c -8.48667,-37.01336 -20.87334,-73.40669 -31.05334,-110.00002 -6.82,-24.54 -11.54666,-51.94667 -21.61333,-75.33333 9.63333,-4.84 13.54667,-17.16667 8.45333,-26.66667 -1.42666,-2.65333 -7.10666,-6.64667 -6.84,-9.53333 0.39334,-4.19333 3.78667,-9.26 5.44,-13.13333 5.13334,-12.02667 12.59334,-24.60667 15.61334,-37.33334 l -8.66667,-1.33333 c 0.90667,-11.10667 4.66,-22.44667 7.05333,-33.33333 6.98667,-31.832 16.77334,-64.35667 20.94667,-96.66667 l 7.72,0.132 2.94667,5.868 5.61333,16 25.27333,72 107.77999,307.33335 -8.6667,2.6666 c 5.2534,14.4334 15.9734,28.8867 24,42.0001 -23.2733,3.5 -17.4866,39.8066 5.3334,38.5266 24.3933,-1.3733 24.5133,-38.6733 0,-39.1933 l -7.3334,-49.33336 c -2.04,0.83996 -5.56,3.24666 -7.8133,2.39336 -1.98,-0.74 -2.4867,-3.99336 -3.1333,-5.72669 -2.1467,-5.73333 -4.1467,-11.54667 -6.16,-17.33333 -8.8734,-25.57334 -17.5667,-51.24 -26.86,-76.66667 -31.2667,-85.57333 -58.51335,-172.65999 -90.42002,-257.99999 -3.53333,-9.46 -6.85333,-19.08867 -10.06,-28.66667 -1.32,-3.94666 -3.85333,-8.52933 -4.28,-12.65666 -0.46667,-4.50667 7.44667,-10.62 8.42,-16.01 3.30667,-18.38534 -16.16667,-25.79134 -30.36,-20 -6.39333,-16.87267 -21.88667,-30.9 -30.66667,-46.66667 -1.78,1.266 -4.5,5.29667 -6.72666,5.296 -3.43334,0 -8.34,-7.02866 -10.60667,-9.296 l -27.33334,-27.33333 -31.33333,-31.33333 c -4.708,-4.708 -11.528,-9.63 -14.98133,-15.33334 -1.53134,-2.528 0.23333,-5.89333 0.30466,-8.66666 0.14867,-5.75467 -1.37733,-11.002 -5.44666,-15.27133 -3.92667,-4.11867 -10.19467,-6.44334 -15.87667,-5.76667 -2.902,0.34533 -7.33933,2.80133 -10,1.31 -3.232,-1.81133 -5.508,-5.63867 -8.026,-8.272 -6.52533,-6.82333 -12.91467,-15.22467 -20.64067,-20.66667 l -4,7.33334 -23.33333,-16 -46.66667,-33.33334 -22,-15.71933 -10.38533,-7.814 0.262,-8.46667 -2.54334,-10.66666 50.00001,-12 -4,-8.66667 31.33333,-13.794 56,-25.33333 202.66667,-91.53933 c 3.58667,18.534 33.74667,18.534 37.33333,0 l 57.99999,33.99267 104,61.34066 42.6667,25.2 24,13.46667 -4.6667,8.66666 41.3334,14.66667 c -2.3334,12.77466 7.64,22.80133 20,23.33333 l 8,406.66666 h -9.3334 c 1.8067,14 4.8,29.96666 9.3334,43.33333 -11.6467,0.95333 -20.5734,11.56 -18.3534,23.33333 0.96,5.10667 6.0934,8.62667 6.84,13.33333 0.7534,4.74 -2.4133,12.02667 -3.5733,16.66667 -2.9933,11.97333 -5.6733,24.02667 -8.6667,36 -10.22,40.9 -21.06,82.05333 -29.58,123.33333 l -8.6666,-2.66667 -1.34,27.33336 -1.3267,32 c -24.3067,2.1333 -21.6333,40.4733 2.6667,39.1933 25.8666,-1.36 24.3733,-39.12 -1.3334,-39.1933 l 24,-54.00002 -8.6666,-1.33334 c 1.3333,-16.76 7.72,-34.34666 11.7533,-50.66666 7.3267,-29.71334 14.5,-59.50667 21.3467,-89.33333 2.7,-11.76 7.2733,-23.96 8.2333,-36 l 12.6667,0.66666 12.3866,44.66667 27.52,97.33333 8.8534,31.33333 2.3533,11.12666 -7.78,2.8733 c 4.1467,14.4001 13.7733,30.3867 21.3333,43.3334 -17.9466,0.013 -28.26,21.7067 -13.94,34.4467 11.42,10.1666 31.8134,2.56 32.58,-13.1134 0.3134,-6.3466 -1.4933,-11.9333 -6.1733,-16.4466 -2.02,-1.9467 -5.6133,-2.9 -6.7333,-5.62 -2.1067,-5.1334 -1.3867,-13.08 -1.7934,-18.6 -0.7333,-9.9934 -2.1733,-19.9867 -2.6066,-30.00006 l -9.3334,2.66666 c -2.14,-15.87999 -8.76,-31.89999 -13.0533,-47.33332 -8.3467,-30.03334 -16.8133,-60.04 -25.42,-90 -4.14,-14.42 -11.6533,-31.07333 -12.9267,-45.99333 -0.2733,-3.20667 3.3534,-5.14667 5.18,-7.34 2.9867,-3.58667 4.2067,-7.4 4.22,-12 0.02,-5.80667 -1.8133,-10.96 -6.2,-14.98667 -1.9533,-1.79333 -6.4133,-3.04666 -7.1133,-5.76666 -0.9067,-3.53334 1.1067,-9.02667 1.7067,-12.58 1.6733,-10 4.7333,-20.52667 4.94,-30.66667 l -9.3334,0.66667 c 0,-103.58 -6,-207.1 -6,-310.66666 0,-24.44067 -1.2933,-48.866 -1.3333,-73.33333 -0.01,-5.73134 -3.8667,-20.76467 2,-24 6.2467,14.85533 20.3333,28.872 29.72,42 22.6733,31.71 45.8467,63.06333 68.6667,94.66666 42.5666,58.95867 85.4266,117.70666 128,176.66666 25.9866,35.99333 51.18,72.84 78.28,108 l -8,4.66667 29.3333,28 9.8667,9.99999 -6.3334,15.33334 4.2534,15.33333 -5.8867,11.33333 -15.0467,26 -84.8533,147.33329 h -0.6667 l -7.3333,-4.6666 c -6.0467,13.64 -7.54,31.3133 -15.52,43.9 -1.9,3 -6.8,2.1267 -9.8133,3.4067 -5.3067,2.2466 -9.48,7.2333 -11.1867,12.6933 -4.6467,14.8733 10.16,28.2667 24.52,24.34 18.0333,-4.9267 18.4,-29.9333 2,-37.0067 l 30.6667,-36 -8,-4 27.0533,-47.33332 54.56,-94.66667 24.3867,-42.66666 5.6,4.08666 0.4,12.58 v 28.66667 134.66662 l -9.3334,-0.6666 8,44 c -24.4533,1.0667 -23.7933,36.7933 0,39.1333 22.8467,2.2467 28.2867,-32.2266 6.6667,-38.4666 4.5267,-13.3667 7.5467,-30.5934 8.6667,-44.6667 l -9.3334,0.6666 v -133.99995 -32 c 0,-3.03334 -1.2466,-9.24667 2.1,-10.84667 5.9267,-2.84 7.96,3.30667 10.0667,7.51333 5.4667,10.93334 11.1933,21.72667 16.6667,32.66667 16.84,33.68666 34.4866,66.97333 51.3333,100.66666 6.5333,13.08 14.2067,25.82667 19.8333,39.33336 l -8,2.6667 8.08,12 20.5867,26.6666 c -18.9333,3.66 -15.5733,31.0734 0,36.6934 14.92,5.38 29.5867,-8.94 25.5933,-24.0267 -1.5666,-5.9 -6.08,-10.4467 -11.5933,-12.7467 -2.7,-1.1333 -6.7867,-0.66 -8.48,-3.3533 -2.3933,-3.8 -3.0467,-9.6 -4.28,-13.9 -2.9733,-10.3667 -5.3867,-21.2733 -9.24,-31.3334 l -8,4.6667 c -6.2667,-15.03999 -15.0133,-29.51332 -22.4933,-43.99999 -14.7467,-28.56667 -29.3,-57.25333 -43.6734,-86 -5.9066,-11.82666 -12.0866,-23.50666 -18,-35.33333 -2.1466,-4.3 -6.5866,-9.96667 -7.38,-14.66667 -0.4933,-2.94666 2.9467,-5.63333 4.2934,-8 2.1666,-3.8 3.0533,-8.36666 2.14,-12.66666 -3.1467,-14.78 -16.86,-18.12667 -29.5534,-14 l -8.46,-19.33333 -14.8733,-31.33334 -8,5.33334 c -5.3467,-12.71334 -17.2333,-24.88667 -25.4133,-36 -15.9334,-21.66 -31.3934,-43.67334 -47.3334,-65.33333 -51.8733,-70.49534 -102.4533,-141.94667 -154.02,-212.66667 -17.4666,-23.94933 -34.8333,-47.96933 -52.18,-71.99999 -8.1466,-11.27734 -19.0866,-22.774 -25.0533,-35.33334 10.3133,-5.23666 9.26,-20.24999 2.9867,-27.98999 -5.7134,-7.04867 -16.4467,-8.62867 -24.32,-4.45867 -2.9467,1.56133 -5.1267,3.504 -6.6667,6.44867 -12.4467,-6.45534 -20.22,-22.25334 -33.3333,-27.33334 l -3.3334,8 c -60.9667,-37.318 -123.3733,-72.292 -184.6667,-109.06666 -14.0333,-8.42067 -31.4199,-15.56333 -43.90662,-26.124 -6.91333,-5.85067 -4.34,-17.20267 -16.09333,-19.476 l 8,-44.666668 -8.66667,0.666666 -0.66667,-35.333332 h -4.66666 M 547.25334,1150.4853 c -2.062,8.16 -11.39467,12.2467 -16.67,3.9867 -4.29733,-6.7267 -2.748,-22.1267 7.33667,-22.5533 5.23866,-0.22 6.14866,4.6866 10.17266,6.1066 1.77867,0.6267 6.69734,-0.3066 7.28334,-2.4066 0.664,-2.3867 -2.01067,-5.5467 -3.526,-7.0667 -5.17534,-5.1667 -13.99467,-5.7 -20.59667,-3.3333 -21.452,7.7066 -13.196,44.3066 10,41.82 4.59133,-0.4934 17.83867,-6.8734 13.91933,-13.5467 -1.272,-2.1667 -5.69533,-2.5467 -7.91933,-3.0067 m 564.66666,-6 h -18.6667 c 0.01,7.4334 3.54,6.6667 10,6.6667 -0.14,12.0467 -17.1266,9.1867 -20.4066,0 -4.7667,-13.3333 11.7333,-28.06 19.74,-12.6667 l 9.3333,-2 c -4.4867,-13.18 -21.9933,-16.9733 -32.64,-7.78 -5.46,4.7134 -7.3267,12.8267 -6.58,19.78 1.54,14.3067 14.5867,21.14 27.8867,17.9134 3.36,-0.8134 8.04,-1.9067 10.2666,-4.8 2.7867,-3.6267 1.0667,-12.6934 1.0667,-17.1134 m -874,22 c 2.52307,0 7.388,0.94 9.28334,-1.0666 1.98733,-2.1134 1.63333,-5.9534 4.23533,-7.58 2.742,-1.72 8.676,-0.8134 11.812,-0.6734 6.008,0.26 3.98533,5.9267 7.76867,8.6334 2.11,1.5133 6.42466,0.6866 8.90066,0.6866 -1.36733,-9.1266 -6.85733,-18.1466 -10.26666,-26.6666 -1.68467,-4.2134 -2.954,-10.2267 -5.78334,-13.7867 -1.61866,-2.04 -6.144,-2.0333 -8.46666,-1.3333 -3.23067,0.9733 -4.46734,7.6466 -5.51667,10.4533 -3.79533,10.1467 -10.12427,20.6333 -11.96667,31.3333 m 150.66667,-42 v 42 c 8.55333,0 22.46,2.6334 29.99733,-2.0066 7.42,-4.56 8.012,-16.8934 -1.33066,-19.3267 1.42933,-1.7067 3.11066,-3.2533 4.00333,-5.3333 7.946,-18.5734 -23.24333,-15.3334 -32.67,-15.3334 m 274,0 v 42 c 8.39334,0 19.76934,1.9934 27.33067,-2.3533 11.84867,-6.82 11.00334,-29.96 0.003,-37 -7.27467,-4.6533 -19.09,-2.6467 -27.33334,-2.6467 m 127.33334,0 v 42 h 32.66667 v -7.3333 h -23.33367 v -11.3333 h 20.66667 v -6.6667 h -20.66667 v -8.6667 h 22 v -8 h -31.33333 m 146.66667,0 v 42 h 9.33333 v -18 h 17.33334 v -6.6666 h -17.33334 v -9.3334 h 20 v -8 h -29.33333 m 274.00002,0 v 42 h 9.3333 v -18.6666 c 3.54,0 12.28,-1.5867 14.9334,1.0666 2.94,2.9467 1.0666,13.62 1.0666,17.6 h 8.6667 v -42 h -8.6667 v 16.6667 h -16 c 0,-3.3333 1.7134,-13.78 -1.0666,-15.98 -1.86,-1.4733 -6.0267,-0.6867 -8.2667,-0.6867 m 147.3333,0 v 42 h 8.6667 v -42 h -8.6667 m 132.6667,0 c 0,9.3867 1.7933,20.8734 -0.4533,30 -1.9267,7.8067 -8.6467,3.9934 -9.5467,-2 l -8.6667,0.6667 c 0.54,12.44 17.2,20.7867 25.0934,8.5533 5.7133,-8.86 2.24,-26.98 2.24,-37.22 h -8.6667 m 131.3333,42 h 9.3334 c 0,-8.88 0.1333,-12.8 6.6666,-19.3333 1.9334,4.6267 6.9267,16.7867 11.5867,18.9333 2.9267,1.3467 7.8933,0.4 11.08,0.4 l -11.3333,-17.8866 -4.18,-7.1667 14.18,-16.9467 c -3.26,0 -7.5734,-0.74 -10.6667,0.4 -6.54,2.4134 -12.8333,12.4467 -17.3333,17.6 0,-4.44 1.5666,-12.4533 -0.4,-16.4533 -1.1467,-2.3267 -7.3867,-2.3267 -8.5334,0 -1.46,2.9733 -0.4,8.52 -0.4,11.7867 v 28.6666 m 142,0 h 30 v -7.3333 h -20.6666 v -34 l -8.6467,1.0667 -0.6867,10.9333 v 29.3333 m -1366,-25.3333 v -9.3333 c 3.93534,0 8.96734,-0.7467 12.62734,1.0066 2.67933,1.2867 3.63266,5.1267 1.16066,7.1667 -3.03333,2.5 -10.07733,1.16 -13.788,1.16 m 274.00001,18 v -26.6667 c 4.19733,0 9.71267,-0.96 13.26133,1.7667 5.58867,4.3 5.85467,18.8667 0,23.08 -3.614,2.6 -9.07466,1.82 -13.26133,1.82 m -412.66667,-23.3333 4.66666,13.3333 h -10.66666 l 6,-13.3333 M 397.92,1159.152 v -11.3333 c 4.264,0 10.754,-0.7534 14.578,1.4533 3.702,2.14 2.89,7.1867 -0.60733,9 -3.78933,1.9667 -9.814,0.88 -13.97067,0.88 z"
       id="path1562"
       inkscape:connector-curvature="0"
       sodipodi:nodetypes="cccccccccccccsccccccccccscccccccccccccccccccsccccscccccccccccccccccccccccccccsccscccccccsccccccccccccccccccccccccccccscccccccccccccccccccccccccccccccccccccccccccccccccccccccccccccccccccccccccccccccccccsccccccccccccccccccccccccccccccccscccccccccccccccccccccccccccccscsccccsccscccccccccccccccccccccccccccccsccccsccccccccccccscccccccccccccccccccccccccccccccccccccccccccccccccccccccccccccccccccccccccccccccccccccccccccccccccccccccccccccccccccccccccccccccccccccscccccccccccccccccccccccccccc" />
  </g>
</svg>
